<svg xmlns="http://www.w3.org/2000/svg" viewBox="0 0 24 24" width="512" height="512">
  <rect width="24" height="24" rx="12" fill="#1DB954"/>
  <path d="M17.09 16.69c-.21.35-.67.46-1.02.24-2.8-1.71-6.33-2.1-10.48-1.15-.4.09-.81-.16-.9-.56-.09-.4.16-.81.56-.9 4.54-1.04 8.44-.6 11.6 1.33.35.22.46.68.24 1.04zm1.3-2.93c-.27.43-.84.57-1.27.3-3.23-1.98-8.17-2.58-11.95-1.41-.48.15-1-.13-1.15-.61-.15-.48.13-1 .61-1.15 4.34-1.34 9.8-0.67 13.46 1.58.44.27.57.85.3 1.29zm.12-3.08c-3.88-2.3-10.22-2.51-13.9-1.39-.56.17-1.15-.15-1.32-.71-.17-.56.15-1.15.71-1.32 4.25-1.29 11.23-1.04 15.69 1.61.5.3.66.94.36 1.45-.3.5-.94.66-1.54.36z" fill="#fff"/>
</svg>
